<?xml version="1.0" encoding="UTF-8" standalone="no"?>
<!-- Created with Inkscape (http://www.inkscape.org/) -->
<!-- ClipArt by Arvin61r58 (http://openclipart.org/user-detail/Arvin61r58) -->

<svg
   xmlns:dc="http://purl.org/dc/elements/1.1/"
   xmlns:cc="http://creativecommons.org/ns#"
   xmlns:rdf="http://www.w3.org/1999/02/22-rdf-syntax-ns#"
   xmlns:svg="http://www.w3.org/2000/svg"
   xmlns="http://www.w3.org/2000/svg"
   xmlns:xlink="http://www.w3.org/1999/xlink"
   width="750.00256"
   height="187.49976"
   viewBox="0 0 750.00256 187.49976"
   id="svg4225"
   version="1.1">
  <defs
     id="defs4227">
    <linearGradient
       gradientUnits="userSpaceOnUse"
       y2="757.14386"
       x2="553.95825"
       y1="757.14386"
       x1="80.799919"
       id="linearGradient5180"
       xlink:href="#linearGradient4873"
       gradientTransform="matrix(1.5115696,0,0,1.1390693,-97.238581,-308.92934)" />
    <linearGradient
       id="linearGradient4873">
      <stop
         id="stop4875"
         offset="0"
         stop-color="#f3ed6d" />
      <stop
         id="stop4877"
         offset="0.071429"
         stop-color="#ede77c" />
      <stop
         id="stop4879"
         offset="0.142857"
         stop-color="#f5ef72" />
      <stop
         id="stop4881"
         offset="0.214286"
         stop-color="#f4e65c" />
      <stop
         id="stop4883"
         offset="0.285714"
         stop-color="#eed756" />
      <stop
         id="stop4885"
         offset="0.357143"
         stop-color="#e9c952" />
      <stop
         id="stop4887"
         offset="0.428571"
         stop-color="#eac74d" />
      <stop
         id="stop4889"
         offset="0.5"
         stop-color="#eac848" />
      <stop
         id="stop4891"
         offset="0.571429"
         stop-color="#e6c842" />
      <stop
         id="stop4893"
         offset="0.642857"
         stop-color="#e1c540" />
      <stop
         id="stop4895"
         offset="0.714286"
         stop-color="#dbbd3c" />
      <stop
         id="stop4897"
         offset="0.785714"
         stop-color="#d1ae39" />
      <stop
         id="stop4899"
         offset="0.857143"
         stop-color="#c7a534" />
      <stop
         id="stop4901"
         offset="0.928571"
         stop-color="#c4a92f" />
      <stop
         id="stop4903"
         offset="1"
         stop-color="#c1ac2d" />
    </linearGradient>
  </defs>
  <metadata
     id="metadata4230">
    <rdf:RDF>
      <cc:Work
         rdf:about="">
        <dc:format>image/svg+xml</dc:format>
        <dc:type
           rdf:resource="http://purl.org/dc/dcmitype/StillImage" />
        <dc:title></dc:title>
        <dc:creator>
          <cc:Agent>
            <dc:title>Arvin61r58</dc:title>
          </cc:Agent>
        </dc:creator>
        <dc:publisher>
          <cc:Agent>
            <dc:title>Openclipart.org</dc:title>
          </cc:Agent>
        </dc:publisher>
        <dc:identifier>https://openclipart.org/</dc:identifier>
        <dc:source>https://openclipart.org/user-detail/Arvin61r58</dc:source>
        <dc:description>Gold banner/riggon with drop shadow</dc:description>
        <dc:subject>
          <rdf:Bag>
            <rdf:li>banner</rdf:li>
            <rdf:li>ribbon</rdf:li>
            <rdf:li>drop shadow</rdf:li>
          </rdf:Bag>
        </dc:subject>
        <cc:license
           rdf:resource="http://creativecommons.org/publicdomain/zero/1.0/" />
      </cc:Work>
      <cc:License
         rdf:about="http://creativecommons.org/publicdomain/zero/1.0/">
        <cc:permits
           rdf:resource="http://creativecommons.org/ns#Reproduction" />
        <cc:permits
           rdf:resource="http://creativecommons.org/ns#Distribution" />
        <cc:permits
           rdf:resource="http://creativecommons.org/ns#DerivativeWorks" />
      </cc:License>
    </rdf:RDF>
  </metadata>
  <g
     id="layer1"
     transform="translate(-7.4987293,-463.61233)">
    <g
       id="g5017">
      <path
         id="path4769"
         d="m 375.58653,495.76039 c -73.90227,0.22577 -147.29982,6.79682 -220.02365,14.66353 0,5.21472 0,10.42945 0,15.64418 -37.10616,4.263 -74.193397,8.59494 -111.350746,12.67469 28.197173,12.77333 56.394356,25.54667 84.591536,38.32002 -28.19718,19.67604 -56.394363,39.35208 -84.591536,59.02814 65.471106,-7.10711 130.376176,-16.18687 195.919096,-23.03723 0,-5.54937 0,-11.09873 0,-16.6481 76.68821,-8.18332 155.21492,-10.45186 232.50631,-4.41849 17.45852,1.32501 34.86798,2.8995 52.2352,4.64252 0,5.54725 0,11.09451 0,16.64176 65.51004,6.8964 130.4312,15.86461 195.91909,22.84067 -28.18945,-19.61969 -56.37889,-39.23936 -84.56833,-58.85906 28.18944,-12.83111 56.37888,-25.66222 84.56833,-38.49333 -37.16123,-4.00865 -74.25076,-8.27917 -111.35079,-12.50983 0,-5.22108 0,-10.44214 0,-15.6632 -77.28073,-8.31497 -155.30022,-15.2529 -233.85451,-14.82627 z"
         style="opacity:0.8;fill:#717171;fill-opacity:1;fill-rule:evenodd;stroke:none;stroke-width:2.12211394" />
      <path
         style="fill:#ffffff;fill-opacity:1;fill-rule:evenodd;stroke:#c0c0c0;stroke-width:2.12211442"
         d="m 375.22254,479.65051 c -77.79187,0.23765 -155.05244,7.15454 -231.60382,15.43528 0,5.4892 0,10.97838 0,16.46757 -39.05913,4.48738 -78.098328,9.04731 -117.211325,13.34179 29.68124,13.44561 59.362489,26.89122 89.043715,40.33684 -29.681226,20.71164 -59.362475,41.42327 -89.043715,62.13489 68.916962,-7.48115 137.238075,-17.0388 206.230625,-24.24971 0,-5.84143 0,-11.68288 0,-17.52431 80.72444,-8.61401 163.38412,-11.00196 244.74348,-4.65105 18.3774,1.39475 36.70313,3.05211 54.98443,4.88687 0,5.83921 0,11.67843 0,17.51763 68.95794,7.25937 137.29599,16.69959 206.23062,24.04283 -29.67311,-20.6523 -59.34621,-41.30461 -89.01928,-61.95692 29.67307,-13.50642 59.34617,-27.01286 89.01928,-40.51928 -39.11708,-4.21965 -78.15869,-8.71493 -117.21136,-13.16826 0,-5.49586 0,-10.99172 0,-16.48758 -81.34815,-8.75259 -163.47392,-16.05567 -246.16265,-15.60659 z"
         id="path4573" />
      <path
         style="fill:url(#linearGradient5180);fill-opacity:1;stroke:#d4c350;stroke-width:2.00000048;stroke-linecap:round;stroke-linejoin:round;stroke-miterlimit:4;stroke-dasharray:none;stroke-opacity:1"
         d="m 375.22254,479.65051 c -77.79187,0.23765 -155.05244,7.15454 -231.60382,15.43528 0,5.4892 0,10.97838 0,16.46757 -39.05913,4.48738 -78.098328,9.04731 -117.211325,13.34179 29.68124,13.44561 59.362489,26.89122 89.043715,40.33684 -29.681226,20.71164 -59.362475,41.42327 -89.043715,62.13489 68.916962,-7.48115 137.238075,-17.0388 206.230625,-24.24971 0,-5.84143 0,-11.68288 0,-17.52431 80.72444,-8.61401 163.38412,-11.00196 244.74348,-4.65105 18.3774,1.39475 36.70313,3.05211 54.98443,4.88687 0,5.83921 0,11.67843 0,17.51763 68.95794,7.25937 137.29599,16.69959 206.23062,24.04283 -29.67311,-20.6523 -59.34621,-41.30461 -89.01928,-61.95692 29.67307,-13.50642 59.34617,-27.01286 89.01928,-40.51928 -39.11708,-4.21965 -78.15869,-8.71493 -117.21136,-13.16826 0,-5.49586 0,-10.99172 0,-16.48758 -81.34815,-8.75259 -163.47392,-16.05567 -246.16265,-15.60659 z"
         id="path4579" />
      <path
         style="fill:none;stroke:#d4c350;stroke-width:2.00000048;stroke-linecap:round;stroke-linejoin:round;stroke-miterlimit:4;stroke-dasharray:none;stroke-opacity:1"
         d="m 221.34513,586.77643 c -25.98807,2.79259 -51.84863,6.03624 -77.72641,9.21044 29.68125,2.37527 59.36249,4.75057 89.04374,7.12585 -0.008,-5.83995 -0.0163,-11.67991 -0.0246,-17.51986 -3.7643,0.39452 -7.5286,0.78904 -11.29288,1.18357 z"
         id="path4581" />
      <path
         style="fill:none;stroke:#d4c350;stroke-width:2.00000048;stroke-linecap:round;stroke-linejoin:round;stroke-miterlimit:4;stroke-dasharray:none;stroke-opacity:1"
         d="m 532.36593,603.34631 c 29.67309,-2.37824 59.34619,-4.7565 89.01926,-7.13475 -29.61779,-3.64822 -59.24469,-7.28508 -89.01926,-10.38288 0,5.83921 0,11.67843 0,17.51763 z"
         id="path4583" />
      <path
         style="fill:none;stroke:#d4c350;stroke-width:2.00000048;stroke-linecap:round;stroke-linejoin:round;stroke-miterlimit:4;stroke-dasharray:none;stroke-opacity:1"
         d="m 143.64317,596.00244 c 0,-28.14451 0,-56.28902 0,-84.43351 0,28.14449 0,56.289 0,84.43351 z"
         id="path4585" />
      <path
         style="fill:none;stroke:#d4c350;stroke-width:2.00000048;stroke-linecap:round;stroke-linejoin:round;stroke-miterlimit:4;stroke-dasharray:none;stroke-opacity:1"
         d="m 621.38519,596.22713 c 0,-28.15637 0,-56.31273 0,-84.46911 0,28.15638 0,56.31274 0,84.46911 z"
         id="path4587" />
      <path
         style="fill:#b3b3b3;fill-opacity:0.75977652;fill-rule:evenodd;stroke:none;stroke-width:1.06105697"
         d="m 221.44469,587.64756 c -22.81332,2.4611 -45.51474,5.31972 -68.23126,8.11711 26.05536,2.09334 52.11072,4.18667 78.16608,6.28 -0.006,-5.14672 -0.0144,-10.29346 -0.0216,-15.44018 -3.30443,0.34772 -6.60887,0.69539 -9.91335,1.04307 z"
         id="path4575" />
      <path
         style="fill:#b3b3b3;fill-opacity:0.75977652;fill-rule:evenodd;stroke:none;stroke-width:1.06105697"
         d="m 533.5014,602.31343 c 25.72245,-2.08316 51.44488,-4.16632 77.16729,-6.24947 -25.67552,-3.19217 -51.35634,-6.3829 -77.16729,-9.09457 0,5.11467 0,10.22937 0,15.34404 z"
         id="path4577" />
    </g>
  </g>
</svg>
